#!OML:ASF E:\pregnant2\Project 1\Capture day 1\Session 1\pregnant2.ASF
:FULLY-SPECIFIED
:DEGREES
1243
root -4.7151 3.74333 19.4468 15.8847 -5.61011 -0.0745334
lowerback -0.397433 0.116177 2.65743
upperback -9.44186 0.377893 1.33061
thorax -9.74991 0.0239139 -0.0979828
lowerneck -20.154 -1.80863 -1.07734
upperneck 35.3448 -3.26173 2.12198
head 16.0259 -1.21412 0.46801
rclavicle 7.50412e-015 1.66979e-014
rhumerus -1.20835 36.2664 -60.8562
rradius 50.7675
rwrist 18.1988
rhand -1.38839 -7.83655
rfingers 7.12502
rthumb 24.2599 -396.322
lclavicle 7.50412e-015 1.66979e-014
lhumerus -6.69213 -37.1728 60.2857
lradius 54.1666
lwrist 0.908064
lhand -4.12956 28.3397
lfingers 7.12502
lthumb 21.6295 417.152
rfemur -113.345 -3.89191 30.0404
rtibia 25.3987
rfoot 0.670978 -11.355
rtoes 7.86251
lfemur -109.14 10.4382 -9.78901
ltibia 21.7518
lfoot 2.58109 35.1997
ltoes 15.5025
1244
root -4.7127 3.74364 19.4567 16.0984 -5.54867 -0.181323
lowerback -0.372816 0.10982 2.61234
upperback -9.36694 0.366316 1.3297
thorax -9.68038 0.0231871 -0.0736365
lowerneck -20.3134 -1.78712 -1.02236
upperneck 35.1951 -3.24627 2.13469
head 15.9884 -1.19746 0.465006
rclavicle 5.76476e-015 -1.59028e-014
rhumerus -0.149876 36.3268 -60.6745
rradius 50.1415
rwrist 18.2546
rhand -1.18496 -7.72755
rfingers 7.12502
rthumb 24.4549 -396.187
lclavicle 5.76476e-015 -1.59028e-014
lhumerus -5.14649 -37.6287 59.7638
lradius 53.4093
lwrist 0.345614
lhand -3.78297 28.1797
lfingers 7.12502
lthumb 21.9624 416.953
rfemur -113.597 -3.8605 30.334
rtibia 25.489
rfoot 0.685795 -11.2535
rtoes 7.7649
lfemur -109.372 10.4707 -9.70949
ltibia 21.7001
lfoot 2.74335 35.1439
ltoes 15.7101
1245
root -4.71011 3.74394 19.4661 16.3211 -5.49307 -0.284568
lowerback -0.35741 0.102373 2.5612
upperback -9.29497 0.352571 1.32772
thorax -9.6088 0.0217592 -0.0468387
lowerneck -20.4587 -1.75942 -0.965303
upperneck 35.0486 -3.22328 2.14872
head 15.9491 -1.1774 0.463815
rclavicle -2.41026e-015 2.78299e-015
rhumerus 0.899298 36.3984 -60.4674
rradius 49.5112
rwrist 18.2424
rhand -1.01307 -7.68458
rfingers 7.12502
rthumb 24.6197 -396.121
lclavicle -2.41026e-015 2.78299e-015
lhumerus -3.64007 -38.1109 59.2236
lradius 52.6518
lwrist -0.290531
lhand -3.56362 27.9464
lfingers 7.12502
lthumb 22.173 416.695
rfemur -113.86 -3.82204 30.625
rtibia 25.5796
rfoot 0.702902 -11.1471
rtoes 7.78711
lfemur -109.61 10.5077 -9.63632
ltibia 21.6441
lfoot 2.93044 35.1148
ltoes 15.9487
1246
root -4.70727 3.74433 19.475 16.5499 -5.44388 -0.384182
lowerback -0.356183 0.0945669 2.50733
upperback -9.2189 0.337299 1.32234
thorax -9.52425 0.0196923 -0.0220529
lowerneck -20.603 -1.72647 -0.904152
upperneck 34.9061 -3.19523 2.16489
head 15.9116 -1.15441 0.463858
rclavicle -9.34288e-015 3.57812e-015
rhumerus 1.95259 36.4641 -60.2367
rradius 48.8684
rwrist 18.1867
rhand -0.855431 -7.69773
rfingers 7.12502
rthumb 24.7708 -396.114
lclavicle -9.34288e-015 3.57812e-015
lhumerus -2.15528 -38.6124 58.6515
lradius 51.9053
lwrist -0.965957
lhand -3.48548 27.7245
lfingers 7.12502
lthumb 22.248 416.464
rfemur -114.128 -3.77666 30.9114
rtibia 25.6688
rfoot 0.717478 -11.0355
rtoes 7.88724
lfemur -109.849 10.5493 -9.56863
ltibia 21.5796
lfoot 3.11777 35.1073
ltoes 16.2061
1247
root -4.70431 3.74508 19.4833 16.7808 -5.39463 -0.482557
lowerback -0.347262 0.0831467 2.4494
upperback -9.14747 0.317497 1.31859
thorax -9.44969 0.0156026 0.00712658
lowerneck -20.7368 -1.68894 -0.84978
upperneck 34.7712 -3.16094 2.1879
head 15.8757 -1.12885 0.469369
rclavicle -1.11816e-015 -8.74653e-015
rhumerus 2.99015 36.5374 -59.9865
rradius 48.2194
rwrist 18.0925
rhand -0.693679 -7.73973
rfingers 7.12502
rthumb 24.9258 -396.134
lclavicle -1.11816e-015 -8.74653e-015
lhumerus -0.71329 -39.1307 58.0664
lradius 51.1827
lwrist -1.67485
lhand -3.54636 27.5678
lfingers 7.12502
lthumb 22.1895 416.314
rfemur -114.398 -3.73 31.1973
rtibia 25.7582
rfoot 0.722383 -10.9241
rtoes 8.09022
lfemur -110.081 10.5905 -9.50135
ltibia 21.5002
lfoot 3.28951 35.1195
ltoes 16.4107
1248
root -4.70115 3.74613 19.4911 17.0136 -5.34814 -0.579254
lowerback -0.337749 0.0708165 2.39128
upperback -9.07528 0.29629 1.31227
thorax -9.37472 0.0106378 0.0337896
lowerneck -20.8717 -1.64897 -0.792537
upperneck 34.6436 -3.12466 2.21083
head 15.8436 -1.10207 0.47476
rclavicle 1.81391e-015 -1.66979e-014
rhumerus 4.01835 36.594 -59.7255
rradius 47.5498
rwrist 18.0059
rhand -0.568421 -7.78512
rfingers 7.12502
rthumb 25.0458 -396.163
lclavicle 1.81391e-015 -1.66979e-014
lhumerus 0.708773 -39.6265 57.4561
lradius 50.4856
lwrist -2.34304
lhand -3.62781 27.467
lfingers 7.12502
lthumb 22.1113 416.223
rfemur -114.663 -3.6802 31.4807
rtibia 25.8379
rfoot 0.710365 -10.8202
rtoes 8.34239
lfemur -110.31 10.634 -9.43481
ltibia 21.4192
lfoot 3.42608 35.1417
ltoes 16.5664
